<svg xmlns="http://www.w3.org/2000/svg" xmlns:xlink="http://www.w3.org/1999/xlink" width="500" zoomAndPan="magnify" viewBox="0 0 375 374.999991" height="500" preserveAspectRatio="xMidYMid meet" version="1.2"><g id="3849376173"><path style=" stroke:none;fill-rule:evenodd;fill:#15449f;fill-opacity:1;" d="M 76.464844 161.5 C 93.144531 136.464844 116.332031 113.023438 147.433594 87.226562 C 174.855469 72.75 178.246094 97.460938 166.644531 114.25 C 155.695312 125.800781 145.09375 135.453125 135.921875 148.863281 C 132.535156 161.558594 145.75 160.796875 154.945312 159.570312 C 199.503906 147.964844 239.449219 125.515625 283.925781 114.246094 C 309.578125 112.503906 296.824219 136.96875 282.550781 144.449219 C 263.898438 151.050781 208.28125 163.417969 197.898438 179.550781 C 195.378906 186.804688 201.53125 186.488281 207.226562 185.738281 C 219.378906 182.480469 231.527344 179.21875 243.675781 175.957031 C 256.496094 171.753906 269.3125 167.550781 282.128906 163.34375 C 294.378906 160.542969 307.464844 155.75 318.890625 163.890625 C 319.773438 165.125 320.652344 166.355469 321.535156 167.585938 C 324.84375 182.894531 313.894531 183.867188 299.925781 188.203125 C 292.84375 190.9375 285.757812 193.671875 278.675781 196.402344 C 269.328125 199.234375 259.976562 202.066406 250.628906 204.898438 C 242.304688 207.136719 233.984375 209.375 225.667969 211.613281 C 223.175781 212.410156 220.6875 213.207031 218.195312 214.003906 C 210.355469 221.230469 216.59375 222.96875 223.429688 223.816406 C 226.886719 223.566406 230.34375 223.316406 233.800781 223.0625 C 242.367188 221.382812 337.5 200.007812 325.382812 226.121094 C 322.179688 230.128906 319.96875 232.359375 314.949219 234.207031 C 260.039062 249.753906 221.335938 278.007812 196.484375 204.953125 C 194.683594 199.460938 192.875 193.96875 191.070312 188.472656 C 188.171875 181.140625 184.214844 158.789062 172.457031 165.121094 C 171.953125 166.09375 171.449219 167.066406 170.945312 168.039062 C 169.945312 173.027344 171.589844 177.660156 172.5625 182.628906 C 174.292969 189.597656 176.027344 196.566406 177.757812 203.535156 C 177.835938 205.339844 177.914062 207.144531 177.992188 208.949219 C 177.078125 212.425781 174.292969 212.3125 171.910156 210.652344 C 171.273438 209.894531 170.632812 209.132812 169.996094 208.375 C 167.808594 205.914062 165.621094 203.457031 163.4375 201 C 161.125 198.710938 158.816406 196.421875 156.503906 194.132812 C 152.042969 190.378906 136.871094 172.53125 129.027344 176.144531 C 124.488281 178.234375 124.761719 182.574219 126.796875 186.121094 C 132.867188 196.699219 145.089844 206.621094 153.050781 215.222656 C 154 216.367188 154.953125 217.507812 155.90625 218.648438 C 157.265625 221.117188 157.175781 222.554688 154.179688 221.734375 C 151.859375 221.101562 149.238281 218.964844 147.152344 217.714844 C 139.257812 212.589844 117.449219 191.804688 107.875 198.519531 C 103.417969 203.605469 107.210938 208.273438 111.152344 212.289062 C 117.25 217.140625 123.347656 221.996094 129.441406 226.847656 C 134.617188 230.578125 139.792969 234.304688 144.972656 238.035156 C 146.152344 239.59375 147.355469 242.675781 143.886719 242.441406 C 142.464844 242.339844 141.039062 242.246094 139.609375 242.144531 C 135.710938 241.914062 131.8125 241.683594 127.910156 241.453125 C 119.59375 240.078125 111.898438 238.863281 103.914062 236.210938 C 99.980469 236.101562 94.832031 235.175781 92.875 239.722656 C 92.648438 240.789062 92.417969 241.855469 92.191406 242.921875 C 92.914062 248.757812 103.152344 251.457031 107.667969 252.90625 C 110.488281 253.925781 113.308594 254.945312 116.128906 255.96875 C 120.847656 257.71875 125.566406 259.472656 130.289062 261.222656 C 142.511719 263.957031 150.082031 266.878906 159.777344 274.433594 C 162.851562 277.859375 164.707031 279.917969 163.347656 284.367188 C 148.753906 302.246094 123.765625 300.59375 103.371094 299.21875 C 37.503906 286.097656 40.199219 204.664062 76.464844 161.5 "/></g></svg>